<svg id="visual" viewBox="0 0 2000 2000" width="2000" height="2000" xmlns="http://www.w3.org/2000/svg" xmlns:xlink="http://www.w3.org/1999/xlink" version="1.1"><rect x="0" y="0" width="2000" height="2000" fill="#FFFDB2"></rect><defs><linearGradient id="grad1_0" x1="0%" y1="0%" x2="100%" y2="100%"><stop offset="30%" stop-color="#FFFDB2" stop-opacity="1"></stop><stop offset="70%" stop-color="#FFFDB2" stop-opacity="1"></stop></linearGradient></defs><defs><linearGradient id="grad2_0" x1="0%" y1="0%" x2="100%" y2="100%"><stop offset="30%" stop-color="#FFFDB2" stop-opacity="1"></stop><stop offset="70%" stop-color="#FFFDB2" stop-opacity="1"></stop></linearGradient></defs><g transform="translate(2000, 0)"><path d="M0 1272.8C-140.4 1165.9 -280.8 1059 -406 980.2C-531.2 901.5 -641.2 850.9 -780.6 780.6C-920.1 710.4 -1089 620.5 -1175.9 487.1C-1262.8 353.7 -1267.8 176.8 -1272.8 0L0 0Z" fill="#FBAE3C"></path></g><g transform="translate(0, 2000)"><path d="M0 -1272.8C167.1 -1254.3 334.2 -1235.7 487.1 -1175.9C639.9 -1116.1 778.5 -1015 894.5 -894.5C1010.5 -774 1103.9 -634.1 1163.2 -481.8C1222.4 -329.5 1247.6 -164.7 1272.8 0L0 0Z" fill="#FBAE3C"></path></g></svg>